<?xml version="1.0" encoding="UTF-8"?>
<!DOCTYPE svg PUBLIC "-//W3C//DTD SVG 1.1//EN" "http://www.w3.org/Graphics/SVG/1.1/DTD/svg11.dtd">
<svg xmlns="http://www.w3.org/2000/svg" version="1.1" width="500px" height="500px" style="shape-rendering:geometricPrecision; text-rendering:geometricPrecision; image-rendering:optimizeQuality; fill-rule:evenodd; clip-rule:evenodd" xmlns:xlink="http://www.w3.org/1999/xlink">
<g><path style="opacity:1" fill="#2aac61" d="M 402.5,192.5 C 404.363,195.165 407.03,196.665 410.5,197C 414.677,200.779 413.677,202.612 407.5,202.5C 408.246,203.736 408.579,205.07 408.5,206.5C 399.249,203.82 389.749,201.82 380,200.5C 374.962,200.406 370.128,201.073 365.5,202.5C 365.5,200.833 365.5,199.167 365.5,197.5C 361.756,197.02 361.923,196.354 366,195.5C 369.019,196.809 372.185,197.809 375.5,198.5C 377.23,197.974 378.564,196.974 379.5,195.5C 374.896,194.897 370.563,193.563 366.5,191.5C 363.855,192.108 361.188,192.608 358.5,193C 358.957,193.414 359.291,193.914 359.5,194.5C 358.5,195.167 357.5,195.833 356.5,196.5C 357.833,197.167 359.167,197.833 360.5,198.5C 359.846,200.115 359.346,201.782 359,203.5C 357.984,202.366 357.317,202.699 357,204.5C 356.632,203.09 355.799,202.09 354.5,201.5C 354.251,202.582 354.085,203.915 354,205.5C 352.438,204.069 350.938,202.569 349.5,201C 350.449,200.383 351.282,200.549 352,201.5C 352.692,200.975 353.192,200.308 353.5,199.5C 349.904,198.921 346.238,198.921 342.5,199.5C 356.932,189.577 372.932,186.077 390.5,189C 394.676,189.671 398.676,190.838 402.5,192.5 Z"/></g>
<g><path style="opacity:1" fill="#36a063" d="M 467.5,196.5 C 467.241,192.932 465.241,191.599 461.5,192.5C 464.885,190.755 468.552,190.255 472.5,191C 473.451,191.718 473.617,192.551 473,193.5C 471.259,194.758 469.426,195.758 467.5,196.5 Z"/></g>
<g><path style="opacity:1" fill="#37a365" d="M 402.5,192.5 C 408.244,193.87 413.244,196.537 417.5,200.5C 413.5,203.5 409.5,206.5 405.5,209.5C 392.168,202.366 378.168,200.699 363.5,204.5C 363.5,203.167 364.167,202.5 365.5,202.5C 370.128,201.073 374.962,200.406 380,200.5C 389.749,201.82 399.249,203.82 408.5,206.5C 408.579,205.07 408.246,203.736 407.5,202.5C 413.677,202.612 414.677,200.779 410.5,197C 407.03,196.665 404.363,195.165 402.5,192.5 Z"/></g>
<g><path style="opacity:1" fill="#27ae60" d="M 365.5,202.5 C 364.167,202.5 363.5,203.167 363.5,204.5C 363.167,204.5 362.833,204.5 362.5,204.5C 355.935,205.283 350.269,207.949 345.5,212.5C 343.556,213.189 341.556,213.689 339.5,214C 341.868,215.735 341.368,216.902 338,217.5C 336.386,216.183 335.219,214.517 334.5,212.5C 333.646,213.948 332.646,215.281 331.5,216.5C 332.391,217.59 333.391,217.59 334.5,216.5C 335.614,217.723 335.781,219.056 335,220.5C 333.175,221.103 331.341,221.77 329.5,222.5C 330.5,223.333 331.5,224.167 332.5,225C 329.895,226.79 328.395,229.29 328,232.5C 326.933,231.809 325.766,231.309 324.5,231C 325.167,230.667 325.833,230.333 326.5,230C 325.351,228.396 325.351,226.73 326.5,225C 326.389,223.278 325.889,223.112 325,224.5C 324.157,220.897 324.657,217.564 326.5,214.5C 331.893,209.437 337.226,204.437 342.5,199.5C 346.238,198.921 349.904,198.921 353.5,199.5C 353.192,200.308 352.692,200.975 352,201.5C 351.282,200.549 350.449,200.383 349.5,201C 350.938,202.569 352.438,204.069 354,205.5C 354.085,203.915 354.251,202.582 354.5,201.5C 355.799,202.09 356.632,203.09 357,204.5C 357.317,202.699 357.984,202.366 359,203.5C 359.346,201.782 359.846,200.115 360.5,198.5C 359.167,197.833 357.833,197.167 356.5,196.5C 357.5,195.833 358.5,195.167 359.5,194.5C 359.291,193.914 358.957,193.414 358.5,193C 361.188,192.608 363.855,192.108 366.5,191.5C 370.563,193.563 374.896,194.897 379.5,195.5C 378.564,196.974 377.23,197.974 375.5,198.5C 372.185,197.809 369.019,196.809 366,195.5C 361.923,196.354 361.756,197.02 365.5,197.5C 365.5,199.167 365.5,200.833 365.5,202.5 Z"/></g>
<g><path style="opacity:1" fill="#2fa862" d="M 461.5,192.5 C 465.241,191.599 467.241,192.932 467.5,196.5C 462.533,200.984 457.2,204.984 451.5,208.5C 445.878,213.974 439.878,218.974 433.5,223.5C 433.5,221.833 433.5,220.167 433.5,218.5C 435.199,218.66 436.866,218.494 438.5,218C 439.022,217.439 439.355,216.772 439.5,216C 437.402,214.252 435.735,212.085 434.5,209.5C 433.675,208.614 432.675,208.281 431.5,208.5C 431.719,209.675 431.386,210.675 430.5,211.5C 427.312,212.13 424.312,213.13 421.5,214.5C 433.004,204.076 446.337,196.743 461.5,192.5 Z"/></g>
<g><path style="opacity:1" fill="#27ae5f" d="M 451.5,208.5 C 449.833,208.5 448.167,208.5 446.5,208.5C 446.36,206.876 447.027,205.71 448.5,205C 446.82,204.966 445.32,204.799 444,204.5C 443.121,206.979 441.621,208.979 439.5,210.5C 438.77,209.066 437.77,207.9 436.5,207C 437.071,205.795 437.738,204.628 438.5,203.5C 443.906,201.909 448.906,199.576 453.5,196.5C 455.333,197.052 457,197.885 458.5,199C 456.519,199.605 456.185,200.605 457.5,202C 456.5,202.333 455.5,202.667 454.5,203C 454.833,203.333 455.167,203.667 455.5,204C 454.207,204.49 452.873,204.657 451.5,204.5C 451.5,205.833 451.5,207.167 451.5,208.5 Z"/></g>
<g><path style="opacity:1" fill="#399e66" d="M 342.5,199.5 C 337.226,204.437 331.893,209.437 326.5,214.5C 330.548,208.118 335.882,203.118 342.5,199.5 Z"/></g>
<g><path style="opacity:1" fill="#28ad60" d="M 433.5,223.5 C 430.5,227.167 427.167,230.5 423.5,233.5C 421.742,233.123 420.075,232.456 418.5,231.5C 417.304,231.846 417.304,232.346 418.5,233C 414.384,233.118 410.718,231.785 407.5,229C 410.294,223.704 414.627,220.537 420.5,219.5C 420.366,217.708 420.699,216.042 421.5,214.5C 424.312,213.13 427.312,212.13 430.5,211.5C 431.386,210.675 431.719,209.675 431.5,208.5C 432.675,208.281 433.675,208.614 434.5,209.5C 435.735,212.085 437.402,214.252 439.5,216C 439.355,216.772 439.022,217.439 438.5,218C 436.866,218.494 435.199,218.66 433.5,218.5C 433.5,220.167 433.5,221.833 433.5,223.5 Z"/></g>
<g><path style="opacity:1" fill="#2fa762" d="M 362.5,204.5 C 339.997,213.485 328.33,230.151 327.5,254.5C 327.5,254.833 327.5,255.167 327.5,255.5C 322.638,255.118 317.972,255.784 313.5,257.5C 312.132,241.277 316.465,226.944 326.5,214.5C 324.657,217.564 324.157,220.897 325,224.5C 325.889,223.112 326.389,223.278 326.5,225C 325.351,226.73 325.351,228.396 326.5,230C 325.833,230.333 325.167,230.667 324.5,231C 325.766,231.309 326.933,231.809 328,232.5C 328.395,229.29 329.895,226.79 332.5,225C 331.5,224.167 330.5,223.333 329.5,222.5C 331.341,221.77 333.175,221.103 335,220.5C 335.781,219.056 335.614,217.723 334.5,216.5C 333.391,217.59 332.391,217.59 331.5,216.5C 332.646,215.281 333.646,213.948 334.5,212.5C 335.219,214.517 336.386,216.183 338,217.5C 341.368,216.902 341.868,215.735 339.5,214C 341.556,213.689 343.556,213.189 345.5,212.5C 350.269,207.949 355.935,205.283 362.5,204.5 Z"/></g>
<g><path style="opacity:1" fill="#2da761" d="M 421.5,214.5 C 420.699,216.042 420.366,217.708 420.5,219.5C 414.627,220.537 410.294,223.704 407.5,229C 410.718,231.785 414.384,233.118 418.5,233C 417.304,232.346 417.304,231.846 418.5,231.5C 420.075,232.456 421.742,233.123 423.5,233.5C 416.472,240.86 409.472,248.193 402.5,255.5C 400.863,251.773 402.196,249.773 406.5,249.5C 405.832,246.613 407.165,244.78 410.5,244C 408.773,242.611 407.439,240.944 406.5,239C 407.609,236.953 408.276,234.787 408.5,232.5C 405.509,232.33 403.509,233.663 402.5,236.5C 401.833,235.5 401.167,234.5 400.5,233.5C 397.417,236.594 394.084,239.261 390.5,241.5C 394.296,237.202 398.296,233.036 402.5,229C 408.728,223.927 415.062,219.093 421.5,214.5 Z"/></g>
<g><path style="opacity:1" fill="#2caa60" d="M 352.5,231.5 C 355.518,231.335 358.518,231.502 361.5,232C 362.617,233.892 364.284,234.725 366.5,234.5C 366.5,235.5 366.5,236.5 366.5,237.5C 368.685,237.704 370.685,238.37 372.5,239.5C 373.167,239.5 373.5,239.833 373.5,240.5C 369.015,241.784 364.349,242.784 359.5,243.5C 359.803,246.588 358.47,248.254 355.5,248.5C 353.695,242.743 349.695,239.576 343.5,239C 345.334,235.085 348.334,232.585 352.5,231.5 Z"/></g>
<g><path style="opacity:1" fill="#389c62" d="M 352.5,231.5 C 361.021,229.081 367.688,231.748 372.5,239.5C 370.685,238.37 368.685,237.704 366.5,237.5C 366.5,236.5 366.5,235.5 366.5,234.5C 364.284,234.725 362.617,233.892 361.5,232C 358.518,231.502 355.518,231.335 352.5,231.5 Z"/></g>
<g><path style="opacity:1" fill="#28ad60" d="M 318.5,235.5 C 320.912,235.694 321.912,237.027 321.5,239.5C 323.144,239.286 324.644,239.62 326,240.5C 326.499,245.155 326.666,249.821 326.5,254.5C 322.833,254.5 319.167,254.5 315.5,254.5C 315.5,250.167 315.5,245.833 315.5,241.5C 316.5,241.5 317.5,241.5 318.5,241.5C 318.238,242.978 318.571,244.311 319.5,245.5C 320.466,243.604 320.799,241.604 320.5,239.5C 319.325,239.719 318.325,239.386 317.5,238.5C 318.127,237.583 318.461,236.583 318.5,235.5 Z"/></g>
<g><path style="opacity:1" fill="#e49928" d="M 256.5,245.5 C 256.167,247.5 255.833,249.5 255.5,251.5C 246.833,251.5 238.167,251.5 229.5,251.5C 237.65,250.507 245.983,250.174 254.5,250.5C 254.5,248.167 254.5,245.833 254.5,243.5C 243.147,243.168 231.814,243.501 220.5,244.5C 218.968,253.466 217.302,262.466 215.5,271.5C 214.824,272.602 214.158,273.602 213.5,274.5C 213.194,271.615 213.527,268.948 214.5,266.5C 216.124,259.311 217.458,251.978 218.5,244.5C 230.918,242.55 243.585,241.883 256.5,242.5C 256.5,243.5 256.5,244.5 256.5,245.5 Z"/></g>
<g><path style="opacity:1" fill="#28ad60" d="M 402.5,255.5 C 401.214,258.117 399.547,260.45 397.5,262.5C 396.5,262.5 395.5,262.5 394.5,262.5C 393.986,260.302 392.986,258.302 391.5,256.5C 388.232,255.513 384.898,255.18 381.5,255.5C 381.5,253.833 381.5,252.167 381.5,250.5C 384.167,247.167 387.167,244.167 390.5,241.5C 394.084,239.261 397.417,236.594 400.5,233.5C 401.167,234.5 401.833,235.5 402.5,236.5C 403.509,233.663 405.509,232.33 408.5,232.5C 408.276,234.787 407.609,236.953 406.5,239C 407.439,240.944 408.773,242.611 410.5,244C 407.165,244.78 405.832,246.613 406.5,249.5C 402.196,249.773 400.863,251.773 402.5,255.5 Z"/></g>
<g><path style="opacity:1" fill="#2e3d4c" d="M 185.5,266.5 C 183.565,265.85 181.565,265.517 179.5,265.5C 180.005,262.657 181.005,259.99 182.5,257.5C 181.448,255.777 181.448,254.11 182.5,252.5C 181.855,251.354 181.022,250.354 180,249.5C 179.502,252.817 179.335,256.15 179.5,259.5C 173.262,260.189 172.262,262.689 176.5,267C 177.448,267.483 178.448,267.649 179.5,267.5C 181.664,274.307 181.997,281.307 180.5,288.5C 179.808,287.975 179.308,287.308 179,286.5C 178.829,281.467 178.329,276.467 177.5,271.5C 176.817,271.137 176.15,270.804 175.5,270.5C 175.592,266.929 173.926,265.762 170.5,267C 172.852,267.576 173.852,269.076 173.5,271.5C 172.627,277.802 172.294,284.135 172.5,290.5C 171.306,283.649 171.306,276.649 172.5,269.5C 170.167,268.167 167.833,268.167 165.5,269.5C 165.833,268.833 166.167,268.167 166.5,267.5C 166.684,265.144 166.684,262.477 166.5,259.5C 169.448,259.777 172.281,259.444 175,258.5C 175.499,254.514 175.666,250.514 175.5,246.5C 185.129,243.297 188.129,246.463 184.5,256C 185.167,257 185.833,258 186.5,259C 192.157,259.499 197.824,259.666 203.5,259.5C 203.5,261.833 203.5,264.167 203.5,266.5C 197.5,266.5 191.5,266.5 185.5,266.5 Z"/></g>
<g><path style="opacity:1" fill="#43474b" d="M 206.5,290.5 C 205.293,291.189 203.959,291.355 202.5,291C 203.823,291.816 204.489,292.983 204.5,294.5C 203.735,294.077 202.902,293.743 202,293.5C 197.286,296.094 192.619,296.094 188,293.5C 187.333,292.167 186.667,290.833 186,289.5C 185.5,281.841 185.334,274.174 185.5,266.5C 191.5,266.5 197.5,266.5 203.5,266.5C 203.5,264.167 203.5,261.833 203.5,259.5C 197.824,259.666 192.157,259.499 186.5,259C 185.833,258 185.167,257 184.5,256C 188.129,246.463 185.129,243.297 175.5,246.5C 175.666,250.514 175.499,254.514 175,258.5C 172.281,259.444 169.448,259.777 166.5,259.5C 166.684,262.477 166.684,265.144 166.5,267.5C 165.521,264.375 165.187,261.042 165.5,257.5C 159.833,257.5 154.167,257.5 148.5,257.5C 148.567,267.043 148.567,276.376 148.5,285.5C 148.167,285.5 147.833,285.5 147.5,285.5C 147.5,275.833 147.5,266.167 147.5,256.5C 155.5,256.5 163.5,256.5 171.5,256.5C 171.203,252.233 171.536,248.066 172.5,244C 177.777,242.514 183.111,241.347 188.5,240.5C 188.195,245.762 188.529,250.928 189.5,256C 195.157,256.499 200.824,256.666 206.5,256.5C 207.671,260.518 207.671,264.518 206.5,268.5C 200.537,269.496 194.537,269.829 188.5,269.5C 188.116,276.589 188.616,283.589 190,290.5C 192.243,292.282 194.743,292.782 197.5,292C 200.002,290.663 202.002,288.829 203.5,286.5C 204.984,287.467 205.984,288.8 206.5,290.5 Z"/></g>
<g><path style="opacity:1" fill="#ba8635" d="M 366.5,245.5 C 365.469,246.249 364.302,246.915 363,247.5C 362.218,250.31 361.384,252.977 360.5,255.5C 360.5,254.167 360.5,252.833 360.5,251.5C 360.167,247.167 362.167,245.167 366.5,245.5 Z"/></g>
<g><path style="opacity:1" fill="#457c5d" d="M 376.5,245.5 C 378.28,246.99 378.946,248.99 378.5,251.5C 377.5,251.5 376.5,251.5 375.5,251.5C 375.365,253.554 376.032,255.221 377.5,256.5C 376.5,256.5 375.5,256.5 374.5,256.5C 374.251,252.542 374.918,248.876 376.5,245.5 Z"/></g>
<g><path style="opacity:1" fill="#68502b" d="M 257.5,241.5 C 258.82,244.899 258.82,248.399 257.5,252C 248.5,252.333 239.5,252.667 230.5,253C 229.877,255.607 229.21,258.107 228.5,260.5C 228.264,257.391 228.597,254.391 229.5,251.5C 238.167,251.5 246.833,251.5 255.5,251.5C 255.833,249.5 256.167,247.5 256.5,245.5C 257.434,244.432 257.768,243.099 257.5,241.5 Z"/></g>
<g><path style="opacity:1" fill="#2caa61" d="M 441.5,231.5 C 450.683,259.927 444.016,284.094 421.5,304C 417.946,306.393 414.28,308.56 410.5,310.5C 411.203,307.458 413.203,305.791 416.5,305.5C 417.281,304.271 417.781,302.938 418,301.5C 418.561,302.022 419.228,302.355 420,302.5C 421.171,301.66 422.338,300.827 423.5,300C 423.043,299.586 422.709,299.086 422.5,298.5C 423.833,297.833 425.167,297.167 426.5,296.5C 425.446,294.799 424.446,293.132 423.5,291.5C 425.75,290.995 427.917,291.662 430,293.5C 430.195,291.793 430.195,290.126 430,288.5C 431.011,289.337 432.178,289.67 433.5,289.5C 433.215,287.712 433.548,286.045 434.5,284.5C 438.162,282.445 438.829,279.945 436.5,277C 437.804,276.196 438.471,275.029 438.5,273.5C 437.6,271.761 436.933,269.928 436.5,268C 437.435,258.53 437.768,249.03 437.5,239.5C 438.833,239.5 440.167,239.5 441.5,239.5C 441.5,236.833 441.5,234.167 441.5,231.5 Z"/></g>
<g><path style="opacity:1" fill="#2e3d4e" d="M 65.5,264.5 C 64.4196,262.955 64.4196,261.455 65.5,260C 65.2409,258.739 64.5742,257.739 63.5,257C 63.8333,256.667 64.1667,256.333 64.5,256C 62.5789,255.64 60.9122,254.806 59.5,253.5C 58.793,265.178 58.1263,276.845 57.5,288.5C 57.4528,290 58.1195,291 59.5,291.5C 61.7411,290.968 63.2411,289.635 64,287.5C 64.9888,280.995 65.8222,274.662 66.5,268.5C 68.1667,269.167 69.8333,269.833 71.5,270.5C 77.0816,271.111 82.7483,271.111 88.5,270.5C 88.5,272.5 88.5,274.5 88.5,276.5C 81.2421,276.702 74.0754,277.368 67,278.5C 66.6172,285.945 66.4505,293.611 66.5,301.5C 62.8333,301.5 59.1667,301.5 55.5,301.5C 55.5,281.833 55.5,262.167 55.5,242.5C 68.6562,241.504 81.9895,241.171 95.5,241.5C 95.5,244.833 95.5,248.167 95.5,251.5C 86.1607,251.334 76.8274,251.5 67.5,252C 66.8333,252.667 66.1667,253.333 65.5,254C 66.8198,257.601 66.8198,261.101 65.5,264.5 Z"/></g>
<g><path style="opacity:0.876" fill="#37a165" d="M 434.5,234.5 C 433.298,236.886 432.298,239.386 431.5,242C 432.52,248.48 432.686,254.98 432,261.5C 430.219,267.305 429.053,273.305 428.5,279.5C 428.182,280.647 427.516,281.481 426.5,282C 426.833,282.333 427.167,282.667 427.5,283C 425.833,283.333 424.167,283.667 422.5,284C 419.971,287.694 416.971,290.86 413.5,293.5C 412.833,293.5 412.167,293.5 411.5,293.5C 428.33,278.51 434.496,259.843 430,237.5C 431.615,236.614 433.115,235.614 434.5,234.5 Z"/></g>
<g><path style="opacity:1" fill="#3f5d44" d="M 327.5,255.5 C 325.5,256.167 323.5,256.833 321.5,257.5C 320.391,257.557 319.391,257.89 318.5,258.5C 316.833,258.5 315.167,258.5 313.5,258.5C 313.5,258.167 313.5,257.833 313.5,257.5C 317.972,255.784 322.638,255.118 327.5,255.5 Z"/></g>
<g><path style="opacity:1" fill="#6c5630" d="M 218.5,241.5 C 218.5,242.5 218.5,243.5 218.5,244.5C 217.458,251.978 216.124,259.311 214.5,266.5C 214.663,264.143 214.497,261.81 214,259.5C 213.617,258.944 213.117,258.611 212.5,258.5C 212.5,257.833 212.833,257.5 213.5,257.5C 215.301,252.086 216.968,246.753 218.5,241.5 Z"/></g>
<g><path style="opacity:1" fill="#d8982e" d="M 229.5,251.5 C 228.597,254.391 228.264,257.391 228.5,260.5C 227.523,263.287 227.19,266.287 227.5,269.5C 234.167,269.5 240.833,269.5 247.5,269.5C 247.5,272.167 247.5,274.833 247.5,277.5C 240.5,277.5 233.5,277.5 226.5,277.5C 232.979,276.509 239.646,276.176 246.5,276.5C 246.5,274.5 246.5,272.5 246.5,270.5C 239.578,270.812 232.744,270.479 226,269.5C 226.224,264.573 226.558,259.573 227,254.5C 227.236,252.881 228.069,251.881 229.5,251.5 Z"/></g>
<g><path style="opacity:1" fill="#495345" d="M 373.5,240.5 C 376.084,241.048 377.084,242.715 376.5,245.5C 374.918,248.876 374.251,252.542 374.5,256.5C 375.5,256.5 376.5,256.5 377.5,256.5C 378.167,256.5 378.833,256.5 379.5,256.5C 382.625,257.479 385.958,257.813 389.5,257.5C 389.793,261.437 389.46,265.27 388.5,269C 382.219,268.941 376.219,269.775 370.5,271.5C 370.5,270.5 370.5,269.5 370.5,268.5C 376.167,268.5 381.833,268.5 387.5,268.5C 388.051,265.193 388.384,261.86 388.5,258.5C 382.833,258.5 377.167,258.5 371.5,258.5C 371.5,256.167 371.5,253.833 371.5,251.5C 372.468,249.393 372.802,247.059 372.5,244.5C 370.901,244.232 369.568,244.566 368.5,245.5C 367.833,245.5 367.167,245.5 366.5,245.5C 362.167,245.167 360.167,247.167 360.5,251.5C 359.833,251.833 359.167,252.167 358.5,252.5C 358.167,252.5 357.833,252.5 357.5,252.5C 356.833,251.167 356.167,249.833 355.5,248.5C 358.47,248.254 359.803,246.588 359.5,243.5C 364.349,242.784 369.015,241.784 373.5,240.5 Z"/></g>
<g><path style="opacity:1" fill="#907439" d="M 368.5,245.5 C 369.568,244.566 370.901,244.232 372.5,244.5C 372.802,247.059 372.468,249.393 371.5,251.5C 371.5,249.5 371.5,247.5 371.5,245.5C 370.5,245.5 369.5,245.5 368.5,245.5 Z"/></g>
<g><path style="opacity:1" fill="#6c4f29" d="M 360.5,251.5 C 360.5,252.833 360.5,254.167 360.5,255.5C 360.67,256.822 360.337,257.989 359.5,259C 356.518,259.498 353.518,259.665 350.5,259.5C 352.948,258.527 355.615,258.194 358.5,258.5C 358.5,256.5 358.5,254.5 358.5,252.5C 359.167,252.167 359.833,251.833 360.5,251.5 Z"/></g>
<g><path style="opacity:1" fill="#359a61" d="M 381.5,250.5 C 381.5,252.167 381.5,253.833 381.5,255.5C 384.898,255.18 388.232,255.513 391.5,256.5C 392.986,258.302 393.986,260.302 394.5,262.5C 395.5,262.5 396.5,262.5 397.5,262.5C 396.5,263.833 395.5,265.167 394.5,266.5C 393.5,266.5 392.5,266.5 391.5,266.5C 391.54,263.119 391.207,259.786 390.5,256.5C 386.833,256.5 383.167,256.5 379.5,256.5C 378.833,256.5 378.167,256.5 377.5,256.5C 376.032,255.221 375.365,253.554 375.5,251.5C 376.5,251.5 377.5,251.5 378.5,251.5C 379.609,251.443 380.609,251.11 381.5,250.5 Z"/></g>
<g><path style="opacity:1" fill="#2f3e4e" d="M 152.5,301.5 C 152.072,298.756 150.905,296.423 149,294.5C 146.06,296.88 143.227,299.38 140.5,302C 136.074,303.652 131.741,303.818 127.5,302.5C 131.605,302.766 135.605,302.266 139.5,301C 141.439,300.092 142.439,298.592 142.5,296.5C 139.161,296.11 135.827,295.61 132.5,295C 133.056,294.617 133.389,294.117 133.5,293.5C 136.401,294.501 139.734,294.501 143.5,293.5C 145.046,292.316 146.713,291.316 148.5,290.5C 149.309,288.929 149.643,287.262 149.5,285.5C 150.249,284.469 150.915,283.302 151.5,282C 150.519,274.587 150.186,267.087 150.5,259.5C 154.167,259.5 157.833,259.5 161.5,259.5C 161.5,273.5 161.5,287.5 161.5,301.5C 158.5,301.5 155.5,301.5 152.5,301.5 Z"/></g>
<g><path style="opacity:0.302" fill="#494540" d="M 205.5,302.5 C 206.151,301.909 206.818,301.243 207.5,300.5C 207.888,296.411 208.888,292.744 210.5,289.5C 209.781,291.764 209.448,294.097 209.5,296.5C 209.5,298.5 209.5,300.5 209.5,302.5C 213.702,302.817 217.702,302.483 221.5,301.5C 223.627,294.775 225.127,287.775 226,280.5C 233.087,279.685 240.253,279.185 247.5,279C 248.818,275.731 248.818,272.565 247.5,269.5C 241.355,268.51 235.022,268.177 228.5,268.5C 228.5,265.833 228.5,263.167 228.5,260.5C 229.21,258.107 229.877,255.607 230.5,253C 239.5,252.667 248.5,252.333 257.5,252C 258.82,248.399 258.82,244.899 257.5,241.5C 244.5,241.5 231.5,241.5 218.5,241.5C 216.968,246.753 215.301,252.086 213.5,257.5C 213.91,251.206 214.91,245.039 216.5,239C 231.163,238.5 245.83,238.333 260.5,238.5C 260.708,243.627 260.042,248.627 258.5,253.5C 249.608,254.18 240.774,254.846 232,255.5C 231.744,258.557 231.244,261.557 230.5,264.5C 230.709,265.086 231.043,265.586 231.5,266C 238.158,266.5 244.825,266.666 251.5,266.5C 251.683,271.599 250.683,276.433 248.5,281C 241.541,280.203 234.541,280.37 227.5,281.5C 227.136,289.351 225.803,297.018 223.5,304.5C 222.833,304.833 222.167,305.167 221.5,305.5C 216.553,304.717 211.553,304.217 206.5,304C 205.944,303.617 205.611,303.117 205.5,302.5 Z"/></g>
<g><path style="opacity:1" fill="#ca9032" d="M 218.5,241.5 C 231.5,241.5 244.5,241.5 257.5,241.5C 257.768,243.099 257.434,244.432 256.5,245.5C 256.5,244.5 256.5,243.5 256.5,242.5C 243.585,241.883 230.918,242.55 218.5,244.5C 218.5,243.5 218.5,242.5 218.5,241.5 Z"/></g>
<g><path style="opacity:1" fill="#dd9627" d="M 321.5,257.5 C 329.754,256.609 336.921,258.942 343,264.5C 343.494,266.134 343.66,267.801 343.5,269.5C 340.5,269.5 337.5,269.5 334.5,269.5C 333.647,266.482 331.647,264.649 328.5,264C 326.167,263.333 323.833,263.333 321.5,264C 320.944,264.383 320.611,264.883 320.5,265.5C 320.167,265.5 319.833,265.5 319.5,265.5C 319.238,264.022 319.571,262.689 320.5,261.5C 324.207,262.806 327.874,262.64 331.5,261C 324.807,259.83 318.474,260.664 312.5,263.5C 313.167,262.5 313.833,261.5 314.5,260.5C 315.995,260.011 317.329,259.345 318.5,258.5C 319.391,257.89 320.391,257.557 321.5,257.5 Z"/></g>
<g><path style="opacity:1" fill="#6a522c" d="M 371.5,251.5 C 371.5,253.833 371.5,256.167 371.5,258.5C 377.167,258.5 382.833,258.5 388.5,258.5C 388.384,261.86 388.051,265.193 387.5,268.5C 381.833,268.5 376.167,268.5 370.5,268.5C 370.5,269.5 370.5,270.5 370.5,271.5C 370.768,273.099 370.434,274.432 369.5,275.5C 368.833,276.833 368.167,278.167 367.5,279.5C 367.5,278.833 367.5,278.167 367.5,277.5C 367.417,273.665 368.083,269.998 369.5,266.5C 375.167,266.5 380.833,266.5 386.5,266.5C 386.802,263.941 386.468,261.607 385.5,259.5C 380.5,259.5 375.5,259.5 370.5,259.5C 370.194,256.615 370.527,253.948 371.5,251.5 Z"/></g>
<g><path style="opacity:1" fill="#494d51" d="M 166.5,267.5 C 166.167,268.167 165.833,268.833 165.5,269.5C 164.506,279.987 164.172,290.654 164.5,301.5C 160.137,303.511 155.471,304.011 150.5,303C 151.416,302.722 152.082,302.222 152.5,301.5C 155.5,301.5 158.5,301.5 161.5,301.5C 161.5,287.5 161.5,273.5 161.5,259.5C 157.833,259.5 154.167,259.5 150.5,259.5C 150.186,267.087 150.519,274.587 151.5,282C 150.915,283.302 150.249,284.469 149.5,285.5C 149.167,285.5 148.833,285.5 148.5,285.5C 148.567,276.376 148.567,267.043 148.5,257.5C 154.167,257.5 159.833,257.5 165.5,257.5C 165.187,261.042 165.521,264.375 166.5,267.5 Z"/></g>
<g><path style="opacity:1" fill="#4f4b45" d="M 293.5,287.5 C 292.469,288.249 291.302,288.915 290,289.5C 289.601,289.272 289.435,288.938 289.5,288.5C 289.611,287.883 289.944,287.383 290.5,287C 283.842,286.5 277.175,286.334 270.5,286.5C 270.448,289.952 272.115,292.119 275.5,293C 278.531,293.495 281.531,293.329 284.5,292.5C 282.952,293.794 280.952,294.461 278.5,294.5C 275.783,294.386 273.116,294.052 270.5,293.5C 270.167,293.5 269.833,293.5 269.5,293.5C 269.167,292.833 268.833,292.167 268.5,291.5C 268.5,289.167 268.5,286.833 268.5,284.5C 279.014,284.828 289.347,284.494 299.5,283.5C 301.253,276.523 300.586,269.856 297.5,263.5C 296.415,261.413 294.749,260.08 292.5,259.5C 289.439,257.472 285.939,256.472 282,256.5C 277.887,255.974 274.387,256.974 271.5,259.5C 271.5,259.833 271.5,260.167 271.5,260.5C 266.367,261.796 262.533,264.796 260,269.5C 255.989,275.534 254.489,282.201 255.5,289.5C 255.873,292.574 256.539,295.574 257.5,298.5C 249.628,284.093 251.962,271.26 264.5,260C 272.855,254.542 281.855,253.208 291.5,256C 303.454,262.6 306.954,272.433 302,285.5C 299.061,286.128 296.228,286.795 293.5,287.5 Z M 279.5,267.5 C 284.606,267.7 286.939,270.367 286.5,275.5C 282.818,275.665 279.152,275.499 275.5,275C 274.376,274.751 273.376,274.251 272.5,273.5C 274.288,270.7 276.622,268.7 279.5,267.5 Z"/></g>
<g><path style="opacity:1" fill="#735829" d="M 292.5,260.5 C 292.5,260.167 292.5,259.833 292.5,259.5C 294.749,260.08 296.415,261.413 297.5,263.5C 296.391,263.443 295.391,263.11 294.5,262.5C 294.167,261.5 293.5,260.833 292.5,260.5 Z"/></g>
<g><path style="opacity:1" fill="#c68d30" d="M 275.5,258.5 C 277.304,257.838 279.304,257.505 281.5,257.5C 285.386,257.454 289.053,258.121 292.5,259.5C 292.5,259.833 292.5,260.167 292.5,260.5C 286.975,258.98 281.309,258.313 275.5,258.5 Z"/></g>
<g><path style="opacity:1" fill="#644f30" d="M 292.5,259.5 C 289.053,258.121 285.386,257.454 281.5,257.5C 279.304,257.505 277.304,257.838 275.5,258.5C 274.432,259.434 273.099,259.768 271.5,259.5C 274.387,256.974 277.887,255.974 282,256.5C 285.939,256.472 289.439,257.472 292.5,259.5 Z"/></g>
<g><path style="opacity:1" fill="#6e4f25" d="M 314.5,260.5 C 313.833,261.5 313.167,262.5 312.5,263.5C 311.5,264.167 310.5,264.833 309.5,265.5C 310.069,262.665 311.736,260.999 314.5,260.5 Z"/></g>
<g><path style="opacity:1" fill="#da9c43" d="M 385.5,259.5 C 386.468,261.607 386.802,263.941 386.5,266.5C 380.833,266.5 375.167,266.5 369.5,266.5C 374.64,265.512 379.974,265.179 385.5,265.5C 385.5,263.5 385.5,261.5 385.5,259.5 Z"/></g>
<g><path style="opacity:1" fill="#f29b12" d="M 229.5,251.5 C 228.069,251.881 227.236,252.881 227,254.5C 226.558,259.573 226.224,264.573 226,269.5C 232.744,270.479 239.578,270.812 246.5,270.5C 246.5,272.5 246.5,274.5 246.5,276.5C 239.646,276.176 232.979,276.509 226.5,277.5C 225.883,277.611 225.383,277.944 225,278.5C 224.164,282.853 223.331,287.187 222.5,291.5C 221.883,291.611 221.383,291.944 221,292.5C 220.503,295.146 220.336,297.813 220.5,300.5C 217.5,300.5 214.5,300.5 211.5,300.5C 212.467,292.531 213.134,284.531 213.5,276.5C 213.5,275.833 213.5,275.167 213.5,274.5C 214.158,273.602 214.824,272.602 215.5,271.5C 217.302,262.466 218.968,253.466 220.5,244.5C 231.814,243.501 243.147,243.168 254.5,243.5C 254.5,245.833 254.5,248.167 254.5,250.5C 245.983,250.174 237.65,250.507 229.5,251.5 Z"/></g>
<g><path style="opacity:1" fill="#72522b" d="M 334.5,269.5 C 333.078,268.075 331.411,267.075 329.5,266.5C 326.819,264.238 323.819,263.904 320.5,265.5C 320.611,264.883 320.944,264.383 321.5,264C 323.833,263.333 326.167,263.333 328.5,264C 331.647,264.649 333.647,266.482 334.5,269.5 Z"/></g>
<g><path style="opacity:0.929" fill="#765523" d="M 350.5,259.5 C 350.5,261.833 350.5,264.167 350.5,266.5C 352.833,266.5 355.167,266.5 357.5,266.5C 357.81,269.713 357.477,272.713 356.5,275.5C 356.5,272.833 356.5,270.167 356.5,267.5C 354.167,267.5 351.833,267.5 349.5,267.5C 349.194,264.615 349.527,261.948 350.5,259.5 Z"/></g>
<g><path style="opacity:1" fill="#4e4b45" d="M 357.5,252.5 C 357.833,252.5 358.167,252.5 358.5,252.5C 358.5,254.5 358.5,256.5 358.5,258.5C 355.615,258.194 352.948,258.527 350.5,259.5C 349.527,261.948 349.194,264.615 349.5,267.5C 351.833,267.5 354.167,267.5 356.5,267.5C 356.5,270.167 356.5,272.833 356.5,275.5C 356.5,276.167 356.5,276.833 356.5,277.5C 355.483,280.744 354.15,283.744 352.5,286.5C 352.746,281.609 353.413,276.776 354.5,272C 354.355,271.228 354.022,270.561 353.5,270C 346.798,272.006 339.798,273.173 332.5,273.5C 332.672,272.508 332.338,271.842 331.5,271.5C 331.167,271.5 330.833,271.5 330.5,271.5C 330.768,269.901 330.434,268.568 329.5,267.5C 329.5,267.167 329.5,266.833 329.5,266.5C 331.411,267.075 333.078,268.075 334.5,269.5C 337.5,269.5 340.5,269.5 343.5,269.5C 343.66,267.801 343.494,266.134 343,264.5C 336.921,258.942 329.754,256.609 321.5,257.5C 323.5,256.833 325.5,256.167 327.5,255.5C 327.5,255.167 327.5,254.833 327.5,254.5C 335.623,254.363 341.79,257.696 346,264.5C 347.194,262.377 347.86,260.043 348,257.5C 350.74,256.718 353.574,256.218 356.5,256C 357.337,254.989 357.67,253.822 357.5,252.5 Z"/></g>
<g><path style="opacity:1" fill="#614c26" d="M 228.5,260.5 C 228.5,263.167 228.5,265.833 228.5,268.5C 235.022,268.177 241.355,268.51 247.5,269.5C 240.833,269.5 234.167,269.5 227.5,269.5C 227.19,266.287 227.523,263.287 228.5,260.5 Z"/></g>
<g><path style="opacity:1" fill="#e79a21" d="M 271.5,260.5 C 270.554,263.313 268.554,264.646 265.5,264.5C 265.5,265.5 265.5,266.5 265.5,267.5C 267.5,267.833 269.5,268.167 271.5,268.5C 269.975,270.216 268.975,272.216 268.5,274.5C 267.566,275.568 267.232,276.901 267.5,278.5C 274.833,278.5 282.167,278.5 289.5,278.5C 289.389,279.117 289.056,279.617 288.5,280C 279.492,280.441 270.492,280.274 261.5,279.5C 260.907,274.281 261.907,273.614 264.5,277.5C 265.95,276.15 266.617,274.484 266.5,272.5C 265.5,272.5 264.5,272.5 263.5,272.5C 263.719,271.325 263.386,270.325 262.5,269.5C 261.542,271.624 260.375,273.624 259,275.5C 258.17,281.196 258.337,286.863 259.5,292.5C 261.021,289.946 262.354,287.279 263.5,284.5C 264.417,283.873 265.417,283.539 266.5,283.5C 266.111,286.553 266.777,289.22 268.5,291.5C 268.833,292.167 269.167,292.833 269.5,293.5C 269.5,294.5 269.5,295.5 269.5,296.5C 274.321,297.597 278.987,297.597 283.5,296.5C 287.176,296.413 290.342,295.08 293,292.5C 295.02,293.032 295.853,294.365 295.5,296.5C 294.306,297.272 293.306,298.272 292.5,299.5C 290.847,299.66 289.514,300.326 288.5,301.5C 286.435,301.517 284.435,301.85 282.5,302.5C 276.678,302.79 271.012,302.123 265.5,300.5C 263.716,300.107 262.05,299.441 260.5,298.5C 259.071,295.304 257.405,292.304 255.5,289.5C 254.489,282.201 255.989,275.534 260,269.5C 262.533,264.796 266.367,261.796 271.5,260.5 Z"/></g>
<g><path style="opacity:1" fill="#57533a" d="M 329.5,266.5 C 329.5,266.833 329.5,267.167 329.5,267.5C 326.998,266.221 324.498,266.221 322,267.5C 320.878,270.872 322.045,272.872 325.5,273.5C 327.611,274.742 329.611,274.742 331.5,273.5C 331.833,273.5 332.167,273.5 332.5,273.5C 332.5,274.167 332.5,274.833 332.5,275.5C 332.062,275.435 331.728,275.601 331.5,276C 334.304,277.008 336.637,278.508 338.5,280.5C 332.314,279.119 326.314,277.119 320.5,274.5C 317.054,271.751 316.721,268.751 319.5,265.5C 319.833,265.5 320.167,265.5 320.5,265.5C 323.819,263.904 326.819,264.238 329.5,266.5 Z"/></g>
<g><path style="opacity:1" fill="#437e5a" d="M 329.5,267.5 C 330.434,268.568 330.768,269.901 330.5,271.5C 329.009,268.909 326.675,267.909 323.5,268.5C 323.392,270.514 324.058,272.18 325.5,273.5C 322.045,272.872 320.878,270.872 322,267.5C 324.498,266.221 326.998,266.221 329.5,267.5 Z"/></g>
<g><path style="opacity:1" fill="#f19a15" d="M 275.5,258.5 C 281.309,258.313 286.975,258.98 292.5,260.5C 293.5,260.833 294.167,261.5 294.5,262.5C 295.048,264.394 296.048,266.06 297.5,267.5C 298.833,271.5 298.833,275.5 297.5,279.5C 296.692,279.808 296.025,280.308 295.5,281C 285.448,280.855 275.781,281.688 266.5,283.5C 265.417,283.539 264.417,283.873 263.5,284.5C 262.354,287.279 261.021,289.946 259.5,292.5C 258.337,286.863 258.17,281.196 259,275.5C 260.375,273.624 261.542,271.624 262.5,269.5C 263.386,270.325 263.719,271.325 263.5,272.5C 264.5,272.5 265.5,272.5 266.5,272.5C 266.617,274.484 265.95,276.15 264.5,277.5C 261.907,273.614 260.907,274.281 261.5,279.5C 270.492,280.274 279.492,280.441 288.5,280C 289.056,279.617 289.389,279.117 289.5,278.5C 289.5,278.167 289.5,277.833 289.5,277.5C 289.966,273.838 289.299,270.505 287.5,267.5C 287.586,266.504 287.252,265.671 286.5,265C 283.782,264.347 281.116,263.513 278.5,262.5C 276.956,262.79 275.623,263.456 274.5,264.5C 272.117,263.538 271.117,264.538 271.5,267.5C 271.5,267.833 271.5,268.167 271.5,268.5C 269.5,268.167 267.5,267.833 265.5,267.5C 265.5,266.5 265.5,265.5 265.5,264.5C 268.554,264.646 270.554,263.313 271.5,260.5C 271.5,260.167 271.5,259.833 271.5,259.5C 273.099,259.768 274.432,259.434 275.5,258.5 Z"/></g>
<g><path style="opacity:1" fill="#d79427" d="M 287.5,267.5 C 287.167,267.5 286.833,267.5 286.5,267.5C 286.389,266.883 286.056,266.383 285.5,266C 281.973,265.192 278.64,265.359 275.5,266.5C 274.167,266.833 272.833,267.167 271.5,267.5C 271.117,264.538 272.117,263.538 274.5,264.5C 275.623,263.456 276.956,262.79 278.5,262.5C 281.116,263.513 283.782,264.347 286.5,265C 287.252,265.671 287.586,266.504 287.5,267.5 Z"/></g>
<g><path style="opacity:1" fill="#6b4d25" d="M 308.5,267.5 C 307.845,272.531 309.179,276.865 312.5,280.5C 309.812,279.976 308.312,278.309 308,275.5C 307.199,272.633 307.366,269.966 308.5,267.5 Z"/></g>
<g><path style="opacity:1" fill="#3d7e59" d="M 379.5,256.5 C 383.167,256.5 386.833,256.5 390.5,256.5C 391.207,259.786 391.54,263.119 391.5,266.5C 392.5,266.5 393.5,266.5 394.5,266.5C 392.727,269.06 390.727,271.393 388.5,273.5C 388.5,272.5 388.5,271.5 388.5,270.5C 384.175,270.204 379.842,270.704 375.5,272C 374.667,272.833 373.833,273.667 373,274.5C 372.501,279.489 372.334,284.489 372.5,289.5C 373.5,289.5 374.5,289.5 375.5,289.5C 374.833,290.167 374.167,290.833 373.5,291.5C 373.167,291.5 372.833,291.5 372.5,291.5C 370.466,290.452 369.133,288.786 368.5,286.5C 369.426,282.906 369.759,279.24 369.5,275.5C 370.434,274.432 370.768,273.099 370.5,271.5C 376.219,269.775 382.219,268.941 388.5,269C 389.46,265.27 389.793,261.437 389.5,257.5C 385.958,257.813 382.625,257.479 379.5,256.5 Z"/></g>
<g><path style="opacity:1" fill="#43464c" d="M 116.5,256.5 C 122.093,256.193 127.593,256.527 133,257.5C 132.811,265.492 132.811,273.492 133,281.5C 131.965,289.133 135.132,292.3 142.5,291C 145.113,289.893 146.78,288.06 147.5,285.5C 147.833,285.5 148.167,285.5 148.5,285.5C 148.833,285.5 149.167,285.5 149.5,285.5C 149.643,287.262 149.309,288.929 148.5,290.5C 146.713,291.316 145.046,292.316 143.5,293.5C 139.734,294.501 136.401,294.501 133.5,293.5C 131.311,290.788 129.978,287.622 129.5,284C 129.599,279.111 129.599,274.278 129.5,269.5C 130.304,266.433 130.637,263.433 130.5,260.5C 126.893,259.511 123.226,259.177 119.5,259.5C 119.333,271.505 119.5,283.505 120,295.5C 121.648,298.843 124.148,301.176 127.5,302.5C 131.741,303.818 136.074,303.652 140.5,302C 143.227,299.38 146.06,296.88 149,294.5C 150.905,296.423 152.072,298.756 152.5,301.5C 152.082,302.222 151.416,302.722 150.5,303C 155.471,304.011 160.137,303.511 164.5,301.5C 164.67,302.822 164.337,303.989 163.5,305C 159.5,305.667 155.5,305.667 151.5,305C 149.462,303.764 148.295,301.931 148,299.5C 140.055,307.181 131.222,308.347 121.5,303C 119.348,300.531 117.848,297.698 117,294.5C 116.5,287.174 116.334,279.841 116.5,272.5C 117.388,274.033 117.888,276.366 118,279.5C 118.667,272.167 118.667,264.833 118,257.5C 116.893,258.712 116.393,258.379 116.5,256.5 Z"/></g>
<g><path style="opacity:1" fill="#359960" d="M 330.5,271.5 C 330.833,271.5 331.167,271.5 331.5,271.5C 331.5,272.167 331.5,272.833 331.5,273.5C 329.611,274.742 327.611,274.742 325.5,273.5C 324.058,272.18 323.392,270.514 323.5,268.5C 326.675,267.909 329.009,268.909 330.5,271.5 Z"/></g>
<g><path style="opacity:1" fill="#ec9b1c" d="M 319.5,265.5 C 316.721,268.751 317.054,271.751 320.5,274.5C 326.314,277.119 332.314,279.119 338.5,280.5C 338.842,281.338 339.508,281.672 340.5,281.5C 343.231,284.927 344.231,288.927 343.5,293.5C 341.413,294.585 340.08,296.251 339.5,298.5C 335.965,301.055 331.965,302.388 327.5,302.5C 320.403,302.93 313.736,301.597 307.5,298.5C 306.272,297.694 305.272,296.694 304.5,295.5C 304.5,293.833 304.5,292.167 304.5,290.5C 305.791,290.737 306.791,290.404 307.5,289.5C 309.167,289.5 310.833,289.5 312.5,289.5C 314.76,297.099 319.76,299.599 327.5,297C 330.264,296.994 332.264,295.828 333.5,293.5C 333.896,290.956 333.229,288.789 331.5,287C 326.803,284.407 321.803,282.573 316.5,281.5C 315.167,281.167 313.833,280.833 312.5,280.5C 309.179,276.865 307.845,272.531 308.5,267.5C 309.338,267.158 309.672,266.492 309.5,265.5C 310.5,264.833 311.5,264.167 312.5,263.5C 318.474,260.664 324.807,259.83 331.5,261C 327.874,262.64 324.207,262.806 320.5,261.5C 319.571,262.689 319.238,264.022 319.5,265.5 Z"/></g>
<g><path style="opacity:1" fill="#31935c" d="M 388.5,273.5 C 386.528,277.105 383.861,280.105 380.5,282.5C 384.278,275.79 382.445,273.123 375,274.5C 374.392,277.817 373.892,281.151 373.5,284.5C 373.585,286.333 374.252,287.666 375.5,288.5C 375.5,288.833 375.5,289.167 375.5,289.5C 374.5,289.5 373.5,289.5 372.5,289.5C 372.334,284.489 372.501,279.489 373,274.5C 373.833,273.667 374.667,272.833 375.5,272C 379.842,270.704 384.175,270.204 388.5,270.5C 388.5,271.5 388.5,272.5 388.5,273.5 Z"/></g>
<g><path style="opacity:1" fill="#4e4b49" d="M 286.5,267.5 C 288.123,270.215 288.79,273.215 288.5,276.5C 282.158,276.666 275.825,276.5 269.5,276C 270.548,272.141 272.548,268.974 275.5,266.5C 278.64,265.359 281.973,265.192 285.5,266C 286.056,266.383 286.389,266.883 286.5,267.5 Z M 279.5,267.5 C 276.622,268.7 274.288,270.7 272.5,273.5C 273.376,274.251 274.376,274.751 275.5,275C 279.152,275.499 282.818,275.665 286.5,275.5C 286.939,270.367 284.606,267.7 279.5,267.5 Z"/></g>
<g><path style="opacity:1" fill="#5c4b34" d="M 275.5,266.5 C 272.548,268.974 270.548,272.141 269.5,276C 275.825,276.5 282.158,276.666 288.5,276.5C 288.79,273.215 288.123,270.215 286.5,267.5C 286.833,267.5 287.167,267.5 287.5,267.5C 289.299,270.505 289.966,273.838 289.5,277.5C 282.5,277.5 275.5,277.5 268.5,277.5C 268.5,276.5 268.5,275.5 268.5,274.5C 268.975,272.216 269.975,270.216 271.5,268.5C 271.5,268.167 271.5,267.833 271.5,267.5C 272.833,267.167 274.167,266.833 275.5,266.5 Z M 279.5,267.5 C 276.622,268.7 274.288,270.7 272.5,273.5C 273.376,274.251 274.376,274.751 275.5,275C 279.152,275.499 282.818,275.665 286.5,275.5C 286.939,270.367 284.606,267.7 279.5,267.5 Z"/></g>
<g><path style="opacity:1" fill="#755016" d="M 268.5,274.5 C 268.5,275.5 268.5,276.5 268.5,277.5C 275.5,277.5 282.5,277.5 289.5,277.5C 289.5,277.833 289.5,278.167 289.5,278.5C 282.167,278.5 274.833,278.5 267.5,278.5C 267.232,276.901 267.566,275.568 268.5,274.5 Z"/></g>
<g><path style="opacity:1" fill="#4f4949" d="M 332.5,275.5 C 341.267,276.347 346.267,281.014 347.5,289.5C 346.5,289.5 345.5,289.5 344.5,289.5C 344.662,287.473 344.495,285.473 344,283.5C 343.184,282.177 342.017,281.511 340.5,281.5C 339.508,281.672 338.842,281.338 338.5,280.5C 336.637,278.508 334.304,277.008 331.5,276C 331.728,275.601 332.062,275.435 332.5,275.5 Z"/></g>
<g><path style="opacity:0.965" fill="#745a2e" d="M 247.5,269.5 C 248.818,272.565 248.818,275.731 247.5,279C 240.253,279.185 233.087,279.685 226,280.5C 225.127,287.775 223.627,294.775 221.5,301.5C 222.051,298.193 222.384,294.86 222.5,291.5C 223.331,287.187 224.164,282.853 225,278.5C 225.383,277.944 225.883,277.611 226.5,277.5C 233.5,277.5 240.5,277.5 247.5,277.5C 247.5,274.833 247.5,272.167 247.5,269.5 Z"/></g>
<g><path style="opacity:1" fill="#4a4b4f" d="M 116.5,256.5 C 116.393,258.379 116.893,258.712 118,257.5C 118.667,264.833 118.667,272.167 118,279.5C 117.888,276.366 117.388,274.033 116.5,272.5C 115.506,282.987 115.172,293.654 115.5,304.5C 109.955,305.712 104.455,305.712 99,304.5C 99.1558,286.804 98.3225,269.471 96.5,252.5C 87.2743,253.032 78.1076,253.698 69,254.5C 68.2039,258.755 68.3705,262.921 69.5,267C 77.1594,267.5 84.8261,267.666 92.5,267.5C 94.9397,270.942 95.1064,274.608 93,278.5C 92.1841,279.823 91.0174,280.489 89.5,280.5C 90.1111,277.338 90.7777,274.171 91.5,271C 91.3699,269.941 90.8699,269.108 90,268.5C 83.7341,269.149 77.5674,269.815 71.5,270.5C 69.8333,269.833 68.1667,269.167 66.5,268.5C 66.5674,267.041 66.2341,265.708 65.5,264.5C 66.8198,261.101 66.8198,257.601 65.5,254C 66.1667,253.333 66.8333,252.667 67.5,252C 76.8274,251.5 86.1607,251.334 95.5,251.5C 95.5,248.167 95.5,244.833 95.5,241.5C 81.9895,241.171 68.6562,241.504 55.5,242.5C 54.6682,261.662 54.1682,280.996 54,300.5C 52.5126,280.318 52.0126,259.985 52.5,239.5C 67.5688,238.17 82.7355,238.17 98,239.5C 98.3095,238.234 98.8095,237.067 99.5,236C 104.5,235.333 109.5,235.333 114.5,236C 115.222,242.8 115.888,249.633 116.5,256.5 Z"/></g>
<g><path style="opacity:0.782" fill="#323235" d="M 96.5,252.5 C 95.7375,253.268 94.7375,253.768 93.5,254C 85.8406,254.5 78.1739,254.666 70.5,254.5C 69.1667,258.5 69.1667,262.5 70.5,266.5C 78.0191,266.175 85.3524,266.508 92.5,267.5C 84.8261,267.666 77.1594,267.5 69.5,267C 68.3705,262.921 68.2039,258.755 69,254.5C 78.1076,253.698 87.2743,253.032 96.5,252.5 Z"/></g>
<g><path style="opacity:1" fill="#2c3d51" d="M 65.5,264.5 C 66.2341,265.708 66.5674,267.041 66.5,268.5C 65.8222,274.662 64.9888,280.995 64,287.5C 63.2411,289.635 61.7411,290.968 59.5,291.5C 58.1195,291 57.4528,290 57.5,288.5C 58.1263,276.845 58.793,265.178 59.5,253.5C 60.9122,254.806 62.5789,255.64 64.5,256C 64.1667,256.333 63.8333,256.667 63.5,257C 64.5742,257.739 65.2409,258.739 65.5,260C 64.4196,261.455 64.4196,262.955 65.5,264.5 Z"/></g>
<g><path style="opacity:1" fill="#2f3e4e" d="M 101.5,239.5 C 104.833,239.5 108.167,239.5 111.5,239.5C 112.017,250.745 112.017,261.912 111.5,273C 113.086,282.568 113.253,292.068 112,301.5C 108.606,302.456 105.106,302.789 101.5,302.5C 101.5,281.5 101.5,260.5 101.5,239.5 Z"/></g>
<g><path style="opacity:1" fill="#27ad60" d="M 441.5,231.5 C 441.5,234.167 441.5,236.833 441.5,239.5C 440.167,239.5 438.833,239.5 437.5,239.5C 437.768,249.03 437.435,258.53 436.5,268C 436.933,269.928 437.6,271.761 438.5,273.5C 438.471,275.029 437.804,276.196 436.5,277C 438.829,279.945 438.162,282.445 434.5,284.5C 433.548,286.045 433.215,287.712 433.5,289.5C 432.178,289.67 431.011,289.337 430,288.5C 430.195,290.126 430.195,291.793 430,293.5C 427.917,291.662 425.75,290.995 423.5,291.5C 422.022,291.238 420.689,291.571 419.5,292.5C 418.065,294.374 416.898,296.374 416,298.5C 414.926,297.382 413.76,296.382 412.5,295.5C 412.863,294.817 413.196,294.15 413.5,293.5C 416.971,290.86 419.971,287.694 422.5,284C 424.167,283.667 425.833,283.333 427.5,283C 427.167,282.667 426.833,282.333 426.5,282C 427.516,281.481 428.182,280.647 428.5,279.5C 429.053,273.305 430.219,267.305 432,261.5C 432.686,254.98 432.52,248.48 431.5,242C 432.298,239.386 433.298,236.886 434.5,234.5C 436.481,232.697 438.648,231.03 441,229.5C 441.464,230.094 441.631,230.761 441.5,231.5 Z"/></g>
<g><path style="opacity:1" fill="#d5952d" d="M 294.5,262.5 C 295.391,263.11 296.391,263.443 297.5,263.5C 300.586,269.856 301.253,276.523 299.5,283.5C 288.5,283.5 277.5,283.5 266.5,283.5C 275.781,281.688 285.448,280.855 295.5,281C 296.025,280.308 296.692,279.808 297.5,279.5C 298.833,275.5 298.833,271.5 297.5,267.5C 296.048,266.06 295.048,264.394 294.5,262.5 Z"/></g>
<g><path style="opacity:1" fill="#5d4c2d" d="M 266.5,283.5 C 277.5,283.5 288.5,283.5 299.5,283.5C 289.347,284.494 279.014,284.828 268.5,284.5C 268.5,286.833 268.5,289.167 268.5,291.5C 266.777,289.22 266.111,286.553 266.5,283.5 Z"/></g>
<g><path style="opacity:1" fill="#2ea762" d="M 380.5,282.5 C 379.581,285.089 377.914,287.089 375.5,288.5C 374.252,287.666 373.585,286.333 373.5,284.5C 373.892,281.151 374.392,277.817 375,274.5C 382.445,273.123 384.278,275.79 380.5,282.5 Z"/></g>
<g><path style="opacity:0.657" fill="#484542" d="M 313.5,258.5 C 315.167,258.5 316.833,258.5 318.5,258.5C 317.329,259.345 315.995,260.011 314.5,260.5C 311.736,260.999 310.069,262.665 309.5,265.5C 309.672,266.492 309.338,267.158 308.5,267.5C 307.366,269.966 307.199,272.633 308,275.5C 308.312,278.309 309.812,279.976 312.5,280.5C 313.833,280.833 315.167,281.167 316.5,281.5C 317.789,282.637 318.789,283.97 319.5,285.5C 306.085,282.671 302.252,275.004 308,262.5C 309.451,260.536 311.284,259.203 313.5,258.5 Z"/></g>
<g><path style="opacity:1" fill="#4d5341" d="M 316.5,281.5 C 321.803,282.573 326.803,284.407 331.5,287C 333.229,288.789 333.896,290.956 333.5,293.5C 332.391,293.557 331.391,293.89 330.5,294.5C 329.167,294.5 327.833,294.5 326.5,294.5C 326.5,293.833 326.833,293.5 327.5,293.5C 328.5,293.5 329.5,293.5 330.5,293.5C 331.075,290.429 329.909,288.429 327,287.5C 325.97,287.836 325.47,288.503 325.5,289.5C 323.728,287.71 321.728,286.377 319.5,285.5C 318.789,283.97 317.789,282.637 316.5,281.5 Z"/></g>
<g><path style="opacity:0.948" fill="#3e4248" d="M 52.5,239.5 C 52.0126,259.985 52.5126,280.318 54,300.5C 54.1682,280.996 54.6682,261.662 55.5,242.5C 55.5,262.167 55.5,281.833 55.5,301.5C 59.1667,301.5 62.8333,301.5 66.5,301.5C 66.4505,293.611 66.6172,285.945 67,278.5C 74.0754,277.368 81.2421,276.702 88.5,276.5C 88.5,274.5 88.5,272.5 88.5,270.5C 82.7483,271.111 77.0816,271.111 71.5,270.5C 77.5674,269.815 83.7341,269.149 90,268.5C 90.8699,269.108 91.3699,269.941 91.5,271C 90.7777,274.171 90.1111,277.338 89.5,280.5C 83.2424,280.19 77.0758,280.524 71,281.5C 70.8166,289.412 70.3166,297.246 69.5,305C 63.4788,304.613 57.8121,304.446 52.5,304.5C 51.1717,282.67 51.1717,261.004 52.5,239.5 Z"/></g>
<g><path style="opacity:1" fill="#ee9b19" d="M 366.5,245.5 C 367.167,245.5 367.833,245.5 368.5,245.5C 369.5,245.5 370.5,245.5 371.5,245.5C 371.5,247.5 371.5,249.5 371.5,251.5C 370.527,253.948 370.194,256.615 370.5,259.5C 375.5,259.5 380.5,259.5 385.5,259.5C 385.5,261.5 385.5,263.5 385.5,265.5C 379.974,265.179 374.64,265.512 369.5,266.5C 368.083,269.998 367.417,273.665 367.5,277.5C 365.953,279.807 365.287,282.473 365.5,285.5C 365.505,287.696 365.838,289.696 366.5,291.5C 369.455,295.937 373.122,296.604 377.5,293.5C 380.95,292.756 382.616,294.09 382.5,297.5C 381.167,298.167 380.167,299.167 379.5,300.5C 373.769,303.107 367.769,303.941 361.5,303C 359.333,301.5 357.5,299.667 356,297.5C 355.391,290.811 355.557,284.144 356.5,277.5C 356.5,276.833 356.5,276.167 356.5,275.5C 357.477,272.713 357.81,269.713 357.5,266.5C 355.167,266.5 352.833,266.5 350.5,266.5C 350.5,264.167 350.5,261.833 350.5,259.5C 353.518,259.665 356.518,259.498 359.5,259C 360.337,257.989 360.67,256.822 360.5,255.5C 361.384,252.977 362.218,250.31 363,247.5C 364.302,246.915 365.469,246.249 366.5,245.5 Z"/></g>
<g><path style="opacity:1" fill="#af8037" d="M 367.5,277.5 C 367.5,278.167 367.5,278.833 367.5,279.5C 367.5,280.167 367.5,280.833 367.5,281.5C 366.521,284.625 366.187,287.958 366.5,291.5C 365.838,289.696 365.505,287.696 365.5,285.5C 365.287,282.473 365.953,279.807 367.5,277.5 Z"/></g>
<g><path style="opacity:1" fill="#664e2e" d="M 367.5,281.5 C 367.263,285.273 367.763,288.94 369,292.5C 371.719,293.444 374.552,293.777 377.5,293.5C 373.122,296.604 369.455,295.937 366.5,291.5C 366.187,287.958 366.521,284.625 367.5,281.5 Z"/></g>
<g><path style="opacity:0.98" fill="#3e8059" d="M 327.5,293.5 C 326.833,292.167 326.167,290.833 325.5,289.5C 325.47,288.503 325.97,287.836 327,287.5C 329.909,288.429 331.075,290.429 330.5,293.5C 329.5,293.5 328.5,293.5 327.5,293.5 Z"/></g>
<g><path style="opacity:1" fill="#77572d" d="M 312.5,289.5 C 316.972,296.433 322.972,298.1 330.5,294.5C 331.391,293.89 332.391,293.557 333.5,293.5C 332.264,295.828 330.264,296.994 327.5,297C 319.76,299.599 314.76,297.099 312.5,289.5 Z"/></g>
<g><path style="opacity:0.898" fill="#4b4d48" d="M 369.5,275.5 C 369.759,279.24 369.426,282.906 368.5,286.5C 369.133,288.786 370.466,290.452 372.5,291.5C 372.833,292.833 373.167,292.833 373.5,291.5C 376.833,289.833 380.167,288.167 383.5,286.5C 384.481,289.807 385.481,293.14 386.5,296.5C 385.198,299.466 383.198,301.799 380.5,303.5C 379.292,304.234 377.959,304.567 376.5,304.5C 377.789,303.363 378.789,302.03 379.5,300.5C 380.167,299.167 381.167,298.167 382.5,297.5C 384.157,293.644 382.824,291.811 378.5,292C 377.944,292.383 377.611,292.883 377.5,293.5C 374.552,293.777 371.719,293.444 369,292.5C 367.763,288.94 367.263,285.273 367.5,281.5C 367.5,280.833 367.5,280.167 367.5,279.5C 368.167,278.167 368.833,276.833 369.5,275.5 Z"/></g>
<g><path style="opacity:1" fill="#644e36" d="M 255.5,289.5 C 257.405,292.304 259.071,295.304 260.5,298.5C 259.5,298.5 258.5,298.5 257.5,298.5C 256.539,295.574 255.873,292.574 255.5,289.5 Z"/></g>
<g><path style="opacity:0.251" fill="#58553e" d="M 356.5,277.5 C 355.557,284.144 355.391,290.811 356,297.5C 357.5,299.667 359.333,301.5 361.5,303C 367.769,303.941 373.769,303.107 379.5,300.5C 378.789,302.03 377.789,303.363 376.5,304.5C 370.892,305.601 365.225,305.601 359.5,304.5C 356.865,303.527 354.865,301.86 353.5,299.5C 353.267,297.938 352.6,296.605 351.5,295.5C 351.264,292.391 351.597,289.391 352.5,286.5C 354.15,283.744 355.483,280.744 356.5,277.5 Z"/></g>
<g><path style="opacity:1" fill="#9e7833" d="M 382.5,297.5 C 382.616,294.09 380.95,292.756 377.5,293.5C 377.611,292.883 377.944,292.383 378.5,292C 382.824,291.811 384.157,293.644 382.5,297.5 Z"/></g>
<g><path style="opacity:1" fill="#d09332" d="M 213.5,276.5 C 213.134,284.531 212.467,292.531 211.5,300.5C 214.5,300.5 217.5,300.5 220.5,300.5C 220.336,297.813 220.503,295.146 221,292.5C 221.383,291.944 221.883,291.611 222.5,291.5C 222.384,294.86 222.051,298.193 221.5,301.5C 217.702,302.483 213.702,302.817 209.5,302.5C 209.5,300.5 209.5,298.5 209.5,296.5C 210.924,294.485 211.59,292.152 211.5,289.5C 211.28,284.9 211.946,280.567 213.5,276.5 Z"/></g>
<g><path style="opacity:1" fill="#5c4c39" d="M 293.5,287.5 C 295.784,287.975 297.784,288.975 299.5,290.5C 300.039,295.338 297.706,298.338 292.5,299.5C 293.306,298.272 294.306,297.272 295.5,296.5C 296.627,295.878 297.627,295.045 298.5,294C 296.735,292.702 294.901,291.536 293,290.5C 289.87,292.643 286.703,294.643 283.5,296.5C 280.482,296.665 277.482,296.498 274.5,296C 272.68,295.8 271.347,294.966 270.5,293.5C 273.116,294.052 275.783,294.386 278.5,294.5C 280.952,294.461 282.952,293.794 284.5,292.5C 286.349,291.407 288.016,290.074 289.5,288.5C 289.435,288.938 289.601,289.272 290,289.5C 291.302,288.915 292.469,288.249 293.5,287.5 Z"/></g>
<g><path style="opacity:1" fill="#d89737" d="M 295.5,296.5 C 295.853,294.365 295.02,293.032 293,292.5C 290.342,295.08 287.176,296.413 283.5,296.5C 286.703,294.643 289.87,292.643 293,290.5C 294.901,291.536 296.735,292.702 298.5,294C 297.627,295.045 296.627,295.878 295.5,296.5 Z"/></g>
<g><path style="opacity:1" fill="#2f3d4c" d="M 129.5,269.5 C 129.599,274.278 129.599,279.111 129.5,284C 129.978,287.622 131.311,290.788 133.5,293.5C 133.389,294.117 133.056,294.617 132.5,295C 135.827,295.61 139.161,296.11 142.5,296.5C 142.439,298.592 141.439,300.092 139.5,301C 135.605,302.266 131.605,302.766 127.5,302.5C 124.148,301.176 121.648,298.843 120,295.5C 119.5,283.505 119.333,271.505 119.5,259.5C 123.226,259.177 126.893,259.511 130.5,260.5C 130.637,263.433 130.304,266.433 129.5,269.5 Z"/></g>
<g><path style="opacity:1" fill="#2d3d4f" d="M 129.5,269.5 C 128.531,274.838 127.865,280.171 127.5,285.5C 130.871,288.892 130.871,292.059 127.5,295C 126.101,295.595 124.768,295.428 123.5,294.5C 121.929,292.118 121.096,289.451 121,286.5C 120.5,277.84 120.334,269.173 120.5,260.5C 122.527,260.338 124.527,260.505 126.5,261C 127.424,263.865 128.424,266.698 129.5,269.5 Z"/></g>
<g><path style="opacity:1" fill="#2e3d4e" d="M 185.5,266.5 C 185.334,274.174 185.5,281.841 186,289.5C 186.667,290.833 187.333,292.167 188,293.5C 192.619,296.094 197.286,296.094 202,293.5C 202.902,293.743 203.735,294.077 204.5,294.5C 205.267,295.172 205.934,296.005 206.5,297C 196.799,305.307 186.799,305.641 176.5,298C 177.654,297.086 177.487,296.253 176,295.5C 175.5,287.173 175.334,278.84 175.5,270.5C 176.15,270.804 176.817,271.137 177.5,271.5C 178.329,276.467 178.829,281.467 179,286.5C 179.308,287.308 179.808,287.975 180.5,288.5C 181.997,281.307 181.664,274.307 179.5,267.5C 178.448,267.649 177.448,267.483 176.5,267C 172.262,262.689 173.262,260.189 179.5,259.5C 179.335,256.15 179.502,252.817 180,249.5C 181.022,250.354 181.855,251.354 182.5,252.5C 181.448,254.11 181.448,255.777 182.5,257.5C 181.005,259.99 180.005,262.657 179.5,265.5C 181.565,265.517 183.565,265.85 185.5,266.5 Z"/></g>
<g><path style="opacity:1" fill="#8d6229" d="M 210.5,289.5 C 210.833,289.5 211.167,289.5 211.5,289.5C 211.59,292.152 210.924,294.485 209.5,296.5C 209.448,294.097 209.781,291.764 210.5,289.5 Z"/></g>
<g><path style="opacity:1" fill="#d69a3e" d="M 269.5,293.5 C 269.833,293.5 270.167,293.5 270.5,293.5C 271.347,294.966 272.68,295.8 274.5,296C 277.482,296.498 280.482,296.665 283.5,296.5C 278.987,297.597 274.321,297.597 269.5,296.5C 269.5,295.5 269.5,294.5 269.5,293.5 Z"/></g>
<g><path style="opacity:0.712" fill="#4e4943" d="M 326.5,294.5 C 327.833,294.5 329.167,294.5 330.5,294.5C 322.972,298.1 316.972,296.433 312.5,289.5C 310.833,289.5 309.167,289.5 307.5,289.5C 306.167,289.5 304.833,289.5 303.5,289.5C 303.205,291.735 303.539,293.735 304.5,295.5C 305.272,296.694 306.272,297.694 307.5,298.5C 308.167,299.833 309.167,300.833 310.5,301.5C 311.551,302.222 312.218,303.222 312.5,304.5C 310.692,304.509 309.025,304.009 307.5,303C 304.763,301.386 302.597,299.219 301,296.5C 288.804,307.533 275.304,309.366 260.5,302C 259.29,300.961 258.29,299.794 257.5,298.5C 258.5,298.5 259.5,298.5 260.5,298.5C 262.05,299.441 263.716,300.107 265.5,300.5C 267.426,302.293 269.759,303.293 272.5,303.5C 275.976,304.643 279.642,304.81 283.5,304C 285.491,303.626 287.158,302.793 288.5,301.5C 289.514,300.326 290.847,299.66 292.5,299.5C 297.706,298.338 300.039,295.338 299.5,290.5C 300.186,289.152 301.186,287.985 302.5,287C 306.421,286.797 310.255,286.297 314,285.5C 315.504,292.167 319.67,295.167 326.5,294.5 Z"/></g>
<g><path style="opacity:1" fill="#a4782d" d="M 307.5,289.5 C 306.791,290.404 305.791,290.737 304.5,290.5C 304.5,292.167 304.5,293.833 304.5,295.5C 303.539,293.735 303.205,291.735 303.5,289.5C 304.833,289.5 306.167,289.5 307.5,289.5 Z"/></g>
<g><path style="opacity:1" fill="#a57b38" d="M 343.5,293.5 C 342.925,295.411 341.925,297.078 340.5,298.5C 340.167,298.5 339.833,298.5 339.5,298.5C 340.08,296.251 341.413,294.585 343.5,293.5 Z"/></g>
<g><path style="opacity:1" fill="#525543" d="M 340.5,281.5 C 342.017,281.511 343.184,282.177 344,283.5C 344.495,285.473 344.662,287.473 344.5,289.5C 345.5,289.5 346.5,289.5 347.5,289.5C 348.309,291.028 348.976,292.694 349.5,294.5C 348.448,294.351 347.448,294.517 346.5,295C 343.996,298.064 341.329,300.897 338.5,303.5C 338.167,303.5 337.833,303.5 337.5,303.5C 337.5,303.167 337.5,302.833 337.5,302.5C 338.211,300.97 339.211,299.637 340.5,298.5C 341.925,297.078 342.925,295.411 343.5,293.5C 344.231,288.927 343.231,284.927 340.5,281.5 Z"/></g>
<g><path style="opacity:1" fill="#28ad60" d="M 423.5,291.5 C 424.446,293.132 425.446,294.799 426.5,296.5C 425.167,297.167 423.833,297.833 422.5,298.5C 422.709,299.086 423.043,299.586 423.5,300C 422.338,300.827 421.171,301.66 420,302.5C 419.228,302.355 418.561,302.022 418,301.5C 417.781,302.938 417.281,304.271 416.5,305.5C 413.203,305.791 411.203,307.458 410.5,310.5C 406.846,310.942 403.179,311.276 399.5,311.5C 399.5,312.5 399.5,313.5 399.5,314.5C 394.5,315.167 389.5,315.833 384.5,316.5C 380.503,315.933 376.503,315.1 372.5,314C 376.315,312.204 380.315,310.87 384.5,310C 383.448,308.284 384.114,307.284 386.5,307C 387.252,306.329 387.586,305.496 387.5,304.5C 393.81,303.019 400.143,301.519 406.5,300C 405.167,299.333 405.167,298.667 406.5,298C 409.901,298.266 411.567,296.766 411.5,293.5C 412.167,293.5 412.833,293.5 413.5,293.5C 413.196,294.15 412.863,294.817 412.5,295.5C 413.76,296.382 414.926,297.382 416,298.5C 416.898,296.374 418.065,294.374 419.5,292.5C 420.689,291.571 422.022,291.238 423.5,291.5 Z"/></g>
<g><path style="opacity:1" fill="#cb8f32" d="M 265.5,300.5 C 271.012,302.123 276.678,302.79 282.5,302.5C 279.375,303.479 276.042,303.813 272.5,303.5C 269.759,303.293 267.426,302.293 265.5,300.5 Z"/></g>
<g><path style="opacity:1" fill="#c78b31" d="M 307.5,298.5 C 313.736,301.597 320.403,302.93 327.5,302.5C 325.696,303.162 323.696,303.495 321.5,303.5C 317.668,303.545 314.001,302.878 310.5,301.5C 309.167,300.833 308.167,299.833 307.5,298.5 Z"/></g>
<g><path style="opacity:1" fill="#3c845b" d="M 349.5,294.5 C 350.167,294.833 350.833,295.167 351.5,295.5C 352.6,296.605 353.267,297.938 353.5,299.5C 349.358,296.571 346.691,297.571 345.5,302.5C 344.5,302.5 343.5,302.5 342.5,302.5C 342.5,303.833 342.5,305.167 342.5,306.5C 340.77,305.974 339.436,304.974 338.5,303.5C 341.329,300.897 343.996,298.064 346.5,295C 347.448,294.517 348.448,294.351 349.5,294.5 Z"/></g>
<g><path style="opacity:1" fill="#484849" d="M 212.5,258.5 C 213.117,258.611 213.617,258.944 214,259.5C 214.497,261.81 214.663,264.143 214.5,266.5C 213.527,268.948 213.194,271.615 213.5,274.5C 213.5,275.167 213.5,275.833 213.5,276.5C 211.946,280.567 211.28,284.9 211.5,289.5C 211.167,289.5 210.833,289.5 210.5,289.5C 208.888,292.744 207.888,296.411 207.5,300.5C 206.818,301.243 206.151,301.909 205.5,302.5C 197.879,306.636 189.879,307.469 181.5,305C 175.567,301.964 172.567,297.131 172.5,290.5C 172.294,284.135 172.627,277.802 173.5,271.5C 173.852,269.076 172.852,267.576 170.5,267C 173.926,265.762 175.592,266.929 175.5,270.5C 175.334,278.84 175.5,287.173 176,295.5C 177.487,296.253 177.654,297.086 176.5,298C 186.799,305.641 196.799,305.307 206.5,297C 205.934,296.005 205.267,295.172 204.5,294.5C 204.489,292.983 203.823,291.816 202.5,291C 203.959,291.355 205.293,291.189 206.5,290.5C 207.341,291.009 207.841,290.343 208,288.5C 209.697,278.519 211.197,268.519 212.5,258.5 Z"/></g>
<g><path style="opacity:1" fill="#654d2b" d="M 288.5,301.5 C 287.158,302.793 285.491,303.626 283.5,304C 279.642,304.81 275.976,304.643 272.5,303.5C 276.042,303.813 279.375,303.479 282.5,302.5C 284.435,301.85 286.435,301.517 288.5,301.5 Z"/></g>
<g><path style="opacity:1" fill="#604c2e" d="M 339.5,298.5 C 339.833,298.5 340.167,298.5 340.5,298.5C 339.211,299.637 338.211,300.97 337.5,302.5C 329.438,303.94 321.438,304.94 313.5,305.5C 312.833,305.5 312.5,305.167 312.5,304.5C 312.218,303.222 311.551,302.222 310.5,301.5C 314.001,302.878 317.668,303.545 321.5,303.5C 323.696,303.495 325.696,303.162 327.5,302.5C 331.965,302.388 335.965,301.055 339.5,298.5 Z"/></g>
<g><path style="opacity:0.739" fill="#41403d" d="M 337.5,302.5 C 337.5,302.833 337.5,303.167 337.5,303.5C 329.674,306.141 321.674,306.808 313.5,305.5C 321.438,304.94 329.438,303.94 337.5,302.5 Z"/></g>
<g><path style="opacity:0.969" fill="#406f53" d="M 380.5,303.5 C 381.833,303.5 383.167,303.5 384.5,303.5C 376.474,306.548 368.141,307.214 359.5,305.5C 359.5,305.167 359.5,304.833 359.5,304.5C 365.225,305.601 370.892,305.601 376.5,304.5C 377.959,304.567 379.292,304.234 380.5,303.5 Z"/></g>
<g><path style="opacity:1" fill="#35915c" d="M 411.5,293.5 C 411.567,296.766 409.901,298.266 406.5,298C 405.167,298.667 405.167,299.333 406.5,300C 400.143,301.519 393.81,303.019 387.5,304.5C 381.517,306.912 375.35,308.579 369,309.5C 364.784,310.302 361.617,308.968 359.5,305.5C 368.141,307.214 376.474,306.548 384.5,303.5C 394.404,302.533 403.404,299.2 411.5,293.5 Z"/></g>
<g><path style="opacity:1" fill="#2aa85f" d="M 353.5,299.5 C 354.865,301.86 356.865,303.527 359.5,304.5C 359.5,304.833 359.5,305.167 359.5,305.5C 361.617,308.968 364.784,310.302 369,309.5C 375.35,308.579 381.517,306.912 387.5,304.5C 387.586,305.496 387.252,306.329 386.5,307C 384.114,307.284 383.448,308.284 384.5,310C 380.315,310.87 376.315,312.204 372.5,314C 376.503,315.1 380.503,315.933 384.5,316.5C 378.833,316.5 373.167,316.5 367.5,316.5C 358.3,315.105 349.966,311.772 342.5,306.5C 342.5,305.167 342.5,303.833 342.5,302.5C 343.5,302.5 344.5,302.5 345.5,302.5C 346.691,297.571 349.358,296.571 353.5,299.5 Z"/></g>
<g><path style="opacity:0.949" fill="#2f9a5e" d="M 410.5,310.5 C 396.828,317.667 382.495,319.667 367.5,316.5C 373.167,316.5 378.833,316.5 384.5,316.5C 389.5,315.833 394.5,315.167 399.5,314.5C 399.5,313.5 399.5,312.5 399.5,311.5C 403.179,311.276 406.846,310.942 410.5,310.5 Z"/></g>
</svg>
